<?xml version="1.0"?>
<svg xmlns="http://www.w3.org/2000/svg" xmlns:xlink="http://www.w3.org/1999/xlink" xmlns:svgjs="http://svgjs.com/svgjs" version="1.1" width="512" height="512" x="0" y="0" viewBox="0 0 487.939 487.939" style="enable-background:new 0 0 512 512" xml:space="preserve" class=""><g>
<g xmlns="http://www.w3.org/2000/svg">
	<g>
		<g>
			<path d="M296,115.998h-96c-13.255,0-24,10.745-24,24s10.745,24,24,24h96c13.255,0,24-10.745,24-24S309.255,115.998,296,115.998z      M296,147.998h-96c-4.418,0-8-3.582-8-8s3.582-8,8-8h96c4.418,0,8,3.582,8,8S300.418,147.998,296,147.998z" fill="#ffffff" data-original="#000000" style="" class=""/>
			<rect x="48" y="379.998" width="16" height="16" fill="#ffffff" data-original="#000000" style="" class=""/>
			<rect x="80" y="379.998" width="16" height="16" fill="#ffffff" data-original="#000000" style="" class=""/>
			<rect x="112" y="379.998" width="16" height="16" fill="#ffffff" data-original="#000000" style="" class=""/>
			<rect x="144" y="379.998" width="16" height="16" fill="#ffffff" data-original="#000000" style="" class=""/>
			<rect x="176" y="379.998" width="16" height="16" fill="#ffffff" data-original="#000000" style="" class=""/>
			<rect x="208" y="379.998" width="16" height="16" fill="#ffffff" data-original="#000000" style="" class=""/>
			<rect x="240" y="379.998" width="16" height="16" fill="#ffffff" data-original="#000000" style="" class=""/>
			<rect x="272" y="379.998" width="16" height="16" fill="#ffffff" data-original="#000000" style="" class=""/>
			<path d="M485.688,382.398L485.688,382.398l-15.2-15.408l5.504-20.944c1.118-4.236-1.378-8.583-5.6-9.752L464,334.55V83.998h8     c4.418,0,8-3.582,8-8v-64c0-4.418-3.582-8-8-8H8c-4.418,0-8,3.582-8,8v64c0,4.418,3.582,8,8,8h8v328c0,4.418,3.582,8,8,8h286.664     l-2.624,9.976c-1.118,4.236,1.378,8.583,5.6,9.752l20.896,5.696l5.696,20.896c1.169,4.222,5.516,6.718,9.752,5.6l20.952-5.488     l15.408,15.2c3.117,3.081,8.131,3.081,11.248,0l15.4-15.2l20.96,5.488c4.233,1.113,8.575-1.382,9.744-5.6l5.696-20.888     l20.904-5.696c4.222-1.169,6.718-5.516,5.6-9.752l-5.504-20.952l15.2-15.408C488.684,390.535,488.726,385.538,485.688,382.398z      M16,67.998v-48h448v48H16z M308.072,346.014l5.504,20.952l-15.2,15.408c-3.081,3.117-3.081,8.131,0,11.248l10.192,10.376H32     v-320h416v241.336l-4.264-15.656c-1.169-4.222-5.516-6.718-9.752-5.6l-20.952,5.488l-15.408-15.2     c-3.117-3.081-8.131-3.081-11.248,0l-15.4,15.2l-20.96-5.488c-4.233-1.113-8.575,1.382-9.744,5.6l-5.696,20.888l-20.904,5.696     C309.45,337.431,306.954,341.779,308.072,346.014z M453.824,408.678L453.824,408.678l4.648,17.704l-17.664,4.8     c-2.724,0.747-4.853,2.876-5.6,5.6l-4.8,17.656l-17.704-4.64c-2.733-0.737-5.652,0.041-7.656,2.04L392,464.75l-13.024-12.88     c-1.491-1.475-3.502-2.305-5.6-2.312c-0.686-0.001-1.37,0.091-2.032,0.272l-17.696,4.64l-4.848-17.672     c-0.747-2.724-2.876-4.853-5.6-5.6l-17.664-4.8l4.648-17.696c0.718-2.735-0.06-5.645-2.048-7.656l-12.888-13.048l12.88-13.024     c1.988-2.011,2.766-4.921,2.048-7.656l-4.648-17.72l17.664-4.8c2.724-0.747,4.853-2.876,5.6-5.6l4.8-17.656l17.704,4.64     c2.733,0.72,5.644-0.055,7.656-2.04L392,311.246l13.024,12.88c2.012,1.985,4.923,2.76,7.656,2.04l17.696-4.64l4.8,17.664     c0.747,2.724,2.876,4.853,5.6,5.6l17.664,4.8l-4.648,17.696c-0.718,2.735,0.06,5.645,2.048,7.656l12.912,13.056l-12.88,13.024     C453.884,403.033,453.106,405.944,453.824,408.678z" fill="#ffffff" data-original="#000000" style="" class=""/>
		</g>
	</g>
</g>
<g xmlns="http://www.w3.org/2000/svg">
</g>
<g xmlns="http://www.w3.org/2000/svg">
</g>
<g xmlns="http://www.w3.org/2000/svg">
</g>
<g xmlns="http://www.w3.org/2000/svg">
</g>
<g xmlns="http://www.w3.org/2000/svg">
</g>
<g xmlns="http://www.w3.org/2000/svg">
</g>
<g xmlns="http://www.w3.org/2000/svg">
</g>
<g xmlns="http://www.w3.org/2000/svg">
</g>
<g xmlns="http://www.w3.org/2000/svg">
</g>
<g xmlns="http://www.w3.org/2000/svg">
</g>
<g xmlns="http://www.w3.org/2000/svg">
</g>
<g xmlns="http://www.w3.org/2000/svg">
</g>
<g xmlns="http://www.w3.org/2000/svg">
</g>
<g xmlns="http://www.w3.org/2000/svg">
</g>
<g xmlns="http://www.w3.org/2000/svg">
</g>
</g></svg>
