<?xml version="1.0"?>
<svg xmlns="http://www.w3.org/2000/svg" xmlns:xlink="http://www.w3.org/1999/xlink" xmlns:svgjs="http://svgjs.com/svgjs" version="1.1" width="512" height="512" x="0" y="0" viewBox="0 0 594.66836 594" style="enable-background:new 0 0 512 512" xml:space="preserve" class=""><g><path xmlns="http://www.w3.org/2000/svg" d="m326.195312 441.742188 21.972657-46.140626 120.101562 57.199219-21.976562 46.136719zm0 0" fill="#787777" data-original="#000000" style="" class=""/><path xmlns="http://www.w3.org/2000/svg" d="m530.335938 70.929688c-10.046876 4.386718-16.324219 14.53125-15.757813 25.472656 0 .078125 0 .152344.011719.230468l1.871094 76.730469c3.632812.898438 7.167968 2.160157 10.542968 3.769531 4.359375 2.078126 6.207032 7.292969 4.136719 11.648438l-44.210937 92.828125c-1.320313 2.847656-4.078126 4.765625-7.203126 5.023437-3.132812.253907-6.160156-1.183593-7.9375-3.78125-1.769531-2.59375-2.015624-5.933593-.636718-8.757812l40.007812-84.015625c-17.097656-3.628906-34.457031 4.921875-42 20.695313l-26.898437 56.46875c-5.398438 11.304687-13.269531 21.246093-23.035157 29.09375l-5.589843 4.480468c-27.035157 21.570313-40.199219 56.136719-34.367188 90.222656l79.773438 37.996094-.753907-10.132812c-.953124-12.390625 2.953126-24.667969 10.886719-34.234375l70.179688-84.917969c11.933593-16.769531 18.285156-36.871094 18.144531-57.457031zm0 0" fill="#787777" data-original="#000000" style="" class=""/><path xmlns="http://www.w3.org/2000/svg" d="m88.328125 384.679688c7.933594 9.566406 11.835937 21.835937 10.886719 34.234374l-.757813 10.128907 79.78125-38c5.828125-34.085938-7.339843-68.648438-34.371093-90.214844l-5.589844-4.484375c-9.761719-7.847656-17.640625-17.792969-23.039063-29.09375l-26.898437-56.46875c-7.535156-15.773438-24.894532-24.324219-41.996094-20.691406l40.011719 84.007812c1.375 2.824219 1.128906 6.167969-.644531 8.765625-1.773438 2.589844-4.796876 4.03125-7.929688 3.773438-3.132812-.257813-5.882812-2.175781-7.210938-5.023438l-44.203124-92.820312c-2.078126-4.363281-.222657-9.578125 4.132812-11.648438 3.375-1.617187 6.910156-2.878906 10.539062-3.773437l1.875-76.734375c0-.070313 0-.148438.007813-.222657.566406-10.945312-5.707031-21.09375-15.75-25.476562l-27.16796875 171.363281c-.13671825 20.582031 6.20703175 40.683594 18.14453175 57.453125zm0 0" fill="#787777" data-original="#000000" style="" class=""/><path xmlns="http://www.w3.org/2000/svg" d="m89.238281 452.800781 120.101563-57.203125 21.972656 46.136719-120.097656 57.199219zm0 0" fill="#787777" data-original="#000000" style="" class=""/><path xmlns="http://www.w3.org/2000/svg" d="m386.144531 38.617188-98.652343 31.773437v139.980469l98.652343-31.773438zm0 0" fill="#787777" data-original="#000000" style="" class=""/><path xmlns="http://www.w3.org/2000/svg" d="m278.75-1.617188-87.535156 28.226563 87.535156 28.234375 87.535156-28.234375zm0 0" fill="#787777" data-original="#000000" style="" class=""/><path xmlns="http://www.w3.org/2000/svg" d="m270.007812 70.390625-98.648437-31.773437v139.980468l98.648437 31.773438zm0 0" fill="#787777" data-original="#000000" style="" class=""/></g></svg>
